<svg width="164" height="36" viewBox="0 0 164 36" fill="none" xmlns="http://www.w3.org/2000/svg">
<g clip-path="url(#clip0_5534_27712)">
<path fill-rule="evenodd" clip-rule="evenodd" d="M13.9511 23.7036C5.3155 23.7525 1.87238 15.3765 3.95917 6.99549C8.08663 1.14927 15.7959 -1.61766 23.8044 0.976659C22.8809 2.00446 23.2052 1.73569 22.2768 2.73392C15.6004 9.91572 10.6997 31.0239 26.6665 33.6306C23.9476 35.9923 18.2383 36.4571 14.1449 35.6028C0.884337 32.835 -3.61803 16.8925 3.05833 8.23411C2.32874 13.3147 1.94069 17.2467 4.67314 21.8761C6.53152 25.0248 9.24997 27.505 14.6816 27.2403L13.9511 23.7036L13.9511 23.7036Z" fill="#FFFFFF"/>
<path fill-rule="evenodd" clip-rule="evenodd" d="M20.9048 25.1466C21.9315 29.0835 25.4084 31.3483 30.547 31.172C32.7288 28.5484 35.3436 25.2456 35.8966 19.9575C36.4394 14.7655 34.7831 10.2832 32.2761 7.29395C29.8869 16.2412 28.2433 19.6349 20.9048 25.1466V25.1466Z" fill="#FFFFFF"/>
<path fill-rule="evenodd" clip-rule="evenodd" d="M19.8924 19.3086C24.254 18.0416 28.4 10.4324 29.1268 4.14972L27.7782 3.16797C22.231 7.58159 19.4418 15.6987 19.8924 19.3086Z" fill="#FFFFFF"/>
</g>
<path d="M48.016 25.5V8.58H50.104L56.368 20.268L62.608 8.58H64.648V25.5H62.416V13.092L57.112 22.908H55.6L50.272 13.14V25.5H48.016ZM69.5759 29.82L71.6639 25.188L66.7679 13.788H69.3599L72.9599 22.692L76.6079 13.788H79.1039L72.1199 29.82H69.5759ZM87.1326 25.716C86.2366 25.716 85.4446 25.516 84.7566 25.116C84.0686 24.716 83.5566 24.18 83.2206 23.508V25.5H80.8446V8.58H83.2686V15.684C83.6206 15.044 84.1326 14.532 84.8046 14.148C85.4926 13.764 86.2686 13.572 87.1326 13.572C88.1726 13.572 89.0766 13.82 89.8446 14.316C90.6286 14.812 91.2286 15.516 91.6446 16.428C92.0766 17.324 92.2926 18.396 92.2926 19.644C92.2926 20.892 92.0766 21.972 91.6446 22.884C91.2286 23.796 90.6286 24.5 89.8446 24.996C89.0766 25.476 88.1726 25.716 87.1326 25.716ZM86.5326 23.844C87.5406 23.844 88.3406 23.484 88.9326 22.764C89.5406 22.044 89.8446 21.004 89.8446 19.644C89.8446 18.284 89.5406 17.252 88.9326 16.548C88.3406 15.828 87.5406 15.468 86.5326 15.468C85.5246 15.468 84.7166 15.828 84.1086 16.548C83.5166 17.252 83.2206 18.284 83.2206 19.644C83.2206 21.004 83.5166 22.044 84.1086 22.764C84.7166 23.484 85.5246 23.844 86.5326 23.844ZM94.8083 11.076V8.556H97.6403V11.076H94.8083ZM95.0243 25.5V13.788H97.4483V25.5H95.0243ZM105.852 25.716C104.38 25.716 103.284 25.34 102.564 24.588C101.844 23.836 101.484 22.748 101.484 21.324V15.66H99.2043V13.788H101.484V10.26H103.908V13.788H107.532V15.66H103.908V21.132C103.908 21.98 104.084 22.62 104.436 23.052C104.804 23.484 105.396 23.7 106.212 23.7C106.468 23.7 106.716 23.676 106.956 23.628C107.196 23.564 107.436 23.492 107.676 23.412L108.06 25.236C107.82 25.38 107.484 25.492 107.052 25.572C106.636 25.668 106.236 25.716 105.852 25.716ZM113.73 25.716C112.77 25.716 111.874 25.596 111.042 25.356C110.21 25.1 109.514 24.748 108.954 24.3L109.65 22.668C110.242 23.084 110.89 23.404 111.594 23.628C112.314 23.852 113.034 23.964 113.754 23.964C114.602 23.964 115.242 23.812 115.674 23.508C116.106 23.204 116.322 22.796 116.322 22.284C116.322 21.868 116.178 21.548 115.89 21.324C115.602 21.084 115.17 20.9 114.594 20.772L112.314 20.316C110.298 19.9 109.29 18.86 109.29 17.196C109.29 16.092 109.73 15.212 110.61 14.556C111.49 13.9 112.642 13.572 114.066 13.572C114.882 13.572 115.658 13.692 116.394 13.932C117.146 14.172 117.77 14.532 118.266 15.012L117.57 16.644C117.09 16.228 116.538 15.908 115.914 15.684C115.29 15.46 114.674 15.348 114.066 15.348C113.234 15.348 112.602 15.508 112.17 15.828C111.738 16.132 111.522 16.548 111.522 17.076C111.522 17.876 112.05 18.388 113.106 18.612L115.386 19.068C116.426 19.276 117.21 19.628 117.738 20.124C118.282 20.62 118.554 21.292 118.554 22.14C118.554 23.26 118.114 24.14 117.234 24.78C116.354 25.404 115.186 25.716 113.73 25.716ZM126.126 25.716C124.654 25.716 123.558 25.34 122.838 24.588C122.118 23.836 121.758 22.748 121.758 21.324V15.66H119.478V13.788H121.758V10.26H124.182V13.788H127.806V15.66H124.182V21.132C124.182 21.98 124.358 22.62 124.71 23.052C125.078 23.484 125.67 23.7 126.486 23.7C126.742 23.7 126.99 23.676 127.23 23.628C127.47 23.564 127.71 23.492 127.95 23.412L128.334 25.236C128.094 25.38 127.758 25.492 127.326 25.572C126.91 25.668 126.51 25.716 126.126 25.716ZM134.87 25.716C133.686 25.716 132.662 25.468 131.798 24.972C130.934 24.476 130.262 23.78 129.782 22.884C129.318 21.972 129.086 20.892 129.086 19.644C129.086 18.396 129.318 17.324 129.782 16.428C130.262 15.516 130.934 14.812 131.798 14.316C132.662 13.82 133.686 13.572 134.87 13.572C136.022 13.572 137.03 13.82 137.894 14.316C138.758 14.812 139.43 15.516 139.91 16.428C140.39 17.324 140.63 18.396 140.63 19.644C140.63 20.892 140.39 21.972 139.91 22.884C139.43 23.78 138.758 24.476 137.894 24.972C137.03 25.468 136.022 25.716 134.87 25.716ZM134.87 23.844C135.862 23.844 136.662 23.484 137.27 22.764C137.878 22.044 138.182 21.004 138.182 19.644C138.182 18.284 137.878 17.252 137.27 16.548C136.662 15.828 135.862 15.468 134.87 15.468C133.862 15.468 133.054 15.828 132.446 16.548C131.838 17.252 131.534 18.284 131.534 19.644C131.534 21.004 131.838 22.044 132.446 22.764C133.054 23.484 133.862 23.844 134.87 23.844ZM143.352 25.5V13.788H145.704V15.876C146.312 14.484 147.576 13.708 149.496 13.548L150.288 13.5L150.456 15.564L148.992 15.708C146.864 15.916 145.8 17.012 145.8 18.996V25.5H143.352ZM157.638 25.716C155.718 25.716 154.206 25.18 153.102 24.108C151.998 23.02 151.446 21.54 151.446 19.668C151.446 18.468 151.686 17.412 152.166 16.5C152.662 15.572 153.342 14.852 154.206 14.34C155.07 13.828 156.062 13.572 157.182 13.572C158.798 13.572 160.07 14.092 160.998 15.132C161.926 16.156 162.39 17.572 162.39 19.38V20.196H153.798C153.974 22.628 155.262 23.844 157.662 23.844C158.334 23.844 158.99 23.74 159.63 23.532C160.286 23.324 160.902 22.98 161.478 22.5L162.198 24.18C161.67 24.66 160.99 25.036 160.158 25.308C159.326 25.58 158.486 25.716 157.638 25.716ZM157.278 15.276C156.27 15.276 155.47 15.588 154.878 16.212C154.286 16.836 153.926 17.668 153.798 18.708H160.35C160.302 17.62 160.014 16.78 159.486 16.188C158.958 15.58 158.222 15.276 157.278 15.276Z" fill="#FFFFFF"/>
<defs>
<clipPath id="clip0_5534_27712">
<rect width="36" height="36" fill="white"/>
</clipPath>
</defs>
</svg>
